<svg xmlns="http://www.w3.org/2000/svg" xmlns:xlink="http://www.w3.org/1999/xlink" width="500" zoomAndPan="magnify" viewBox="0 0 375 374.999991" height="500" preserveAspectRatio="xMidYMid meet" version="1.0"><defs><g/><clipPath id="f27dc158e2"><path d="M 187.5 0 C 83.945312 0 0 83.945312 0 187.5 C 0 291.054688 83.945312 375 187.5 375 C 291.054688 375 375 291.054688 375 187.5 C 375 83.945312 291.054688 0 187.5 0 Z M 187.5 0 " clip-rule="nonzero"/></clipPath></defs><g clip-path="url(#f27dc158e2)"><rect x="-37.5" width="450" fill="#000000" y="-37.499999" height="449.999989" fill-opacity="1"/></g><g fill="#ffffff" fill-opacity="1"><g transform="translate(37.500002, 300.053481)"><g><path d="M 96.597656 -165.59375 L 68.996094 -165.59375 L 68.996094 0 L 96.597656 0 Z M 13.800781 -193.191406 L 151.792969 -193.191406 L 151.792969 -220.792969 L 13.800781 -220.792969 Z M 13.800781 -193.191406 "/></g></g></g><g fill="#ffffff" fill-opacity="1"><g transform="translate(147.895492, 300.053481)"><g><path d="M 165.59375 -220.792969 L 137.996094 -220.792969 L 137.996094 0 L 165.59375 0 Z M 13.800781 0 L 41.398438 0 L 41.398438 -220.792969 L 13.800781 -220.792969 Z M 68.996094 -55.199219 L 110.394531 -55.199219 L 110.394531 -82.796875 L 68.996094 -82.796875 Z M 68.996094 -55.199219 "/></g></g></g></svg>