<svg xmlns="http://www.w3.org/2000/svg" xmlns:xlink="http://www.w3.org/1999/xlink" width="500" zoomAndPan="magnify" viewBox="0 0 375 374.999991" height="500" preserveAspectRatio="xMidYMid meet" version="1.0"><defs><g/><clipPath id="7f4859c532"><path d="M 70.691406 72.78125 L 303.890625 72.78125 L 303.890625 305.976562 L 70.691406 305.976562 Z M 70.691406 72.78125 " clip-rule="nonzero"/></clipPath><clipPath id="921d7754b7"><path d="M 95 240 L 209 240 L 209 294.5 L 95 294.5 Z M 95 240 " clip-rule="nonzero"/></clipPath><clipPath id="a712ecd0e0"><path d="M 82.589844 84.5 L 292.585938 84.5 L 292.585938 240 L 82.589844 240 Z M 82.589844 84.5 " clip-rule="nonzero"/></clipPath></defs><path fill="#57744b" d="M 187.5 375 C 83.910156 375 0 290.507812 0 187.5 C 0 84.492188 83.910156 0 187.5 0 C 291.089844 0 375 83.910156 375 187.5 C 375 291.089844 290.507812 375 187.5 375 Z M 187.5 11.574219 C 90.277344 11.574219 11.574219 90.277344 11.574219 187.5 C 11.574219 284.722656 90.277344 363.425781 187.5 363.425781 C 284.722656 363.425781 363.425781 284.722656 363.425781 187.5 C 363.425781 90.277344 284.144531 11.574219 187.5 11.574219 Z M 187.5 11.574219 " fill-opacity="1" fill-rule="nonzero"/><g clip-path="url(#7f4859c532)"><path fill="#6f965f" d="M 187.492188 306.378906 C 122.964844 306.378906 70.691406 253.746094 70.691406 189.578125 C 70.691406 125.410156 122.964844 72.78125 187.492188 72.78125 C 252.019531 72.78125 304.289062 125.050781 304.289062 189.578125 C 304.289062 254.105469 251.660156 306.378906 187.492188 306.378906 Z M 187.492188 79.988281 C 126.929688 79.988281 77.902344 129.015625 77.902344 189.578125 C 77.902344 250.140625 126.929688 299.167969 187.492188 299.167969 C 248.054688 299.167969 297.082031 250.140625 297.082031 189.578125 C 297.082031 129.015625 247.691406 79.988281 187.492188 79.988281 Z M 187.492188 79.988281 " fill-opacity="1" fill-rule="nonzero"/></g><g clip-path="url(#921d7754b7)"><path fill="#824737" d="M 117.773438 245.652344 C 134.261719 250.472656 150.128906 256.839844 165.382812 264.746094 C 180.632812 272.652344 194.984375 281.953125 208.429688 292.652344 C 205.707031 293.199219 202.972656 293.640625 200.214844 293.972656 C 197.460938 294.308594 194.695312 294.53125 191.921875 294.644531 C 189.148438 294.757812 186.375 294.761719 183.601562 294.652344 C 180.828125 294.546875 178.0625 294.332031 175.304688 294.003906 C 172.550781 293.679688 169.808594 293.246094 167.089844 292.703125 C 164.367188 292.160156 161.667969 291.507812 159 290.753906 C 156.328125 289.996094 153.691406 289.132812 151.089844 288.167969 C 148.484375 287.203125 145.925781 286.136719 143.40625 284.96875 C 140.890625 283.796875 138.421875 282.53125 136.003906 281.167969 C 133.585938 279.800781 131.226562 278.34375 128.921875 276.792969 C 126.621094 275.242188 124.382812 273.601562 122.210938 271.871094 C 120.039062 270.144531 117.9375 268.332031 115.90625 266.433594 C 113.878906 264.539062 111.925781 262.566406 110.054688 260.515625 C 108.179688 258.464844 106.390625 256.34375 104.683594 254.152344 C 102.980469 251.960938 101.363281 249.703125 99.835938 247.382812 C 98.308594 245.0625 96.878906 242.6875 95.539062 240.253906 C 102.402344 241.597656 109.863281 243.359375 117.773438 245.652344 Z M 117.773438 245.652344 " fill-opacity="1" fill-rule="nonzero"/></g><path fill="#b55232" d="M 119.433594 238.859375 C 115.941406 237.847656 112.546875 236.941406 109.25 236.136719 C 117.640625 236.382812 126.757812 236.921875 136.347656 237.910156 C 168.617188 241.25 211.703125 250.378906 250.152344 274.03125 C 240.082031 281.53125 229.023438 287.042969 216.972656 290.558594 C 206.523438 281.890625 195.484375 274.046875 183.863281 267.035156 C 163.613281 254.824219 142.136719 245.433594 119.433594 238.859375 Z M 119.433594 238.859375 " fill-opacity="1" fill-rule="nonzero"/><path fill="#f3ac71" d="M 276.269531 245.855469 C 270.660156 254.703125 263.886719 262.539062 255.949219 269.371094 C 241.554688 260.316406 226.355469 252.925781 210.34375 247.199219 C 187.980469 239.109375 163.257812 233.632812 136.875 230.921875 C 125.453125 229.746094 114.652344 229.195312 104.929688 229.035156 C 116.667969 225.898438 128.578125 223.671875 140.65625 222.363281 C 173.417969 218.773438 222.222656 220.421875 276.269531 245.855469 Z M 276.269531 245.855469 " fill-opacity="1" fill-rule="nonzero"/><g clip-path="url(#a712ecd0e0)"><path fill="#57744b" d="M 292.53125 189.652344 C 292.546875 198.410156 291.476562 207.03125 289.328125 215.519531 C 287.175781 224.011719 284.011719 232.101562 279.832031 239.796875 C 258.039062 229.382812 235.261719 222.046875 211.492188 217.78125 C 205.71875 216.761719 199.933594 215.949219 194.128906 215.339844 C 193.753906 208.730469 194.332031 202.207031 195.859375 195.769531 C 196.582031 196.300781 197.347656 196.757812 198.160156 197.132812 C 198.96875 197.511719 199.8125 197.804688 200.679688 198.015625 C 201.550781 198.226562 202.433594 198.347656 203.328125 198.378906 C 204.222656 198.414062 205.113281 198.359375 205.996094 198.214844 C 206.878906 198.070312 207.738281 197.835938 208.578125 197.519531 C 209.414062 197.203125 210.210938 196.808594 210.96875 196.332031 C 211.726562 195.855469 212.429688 195.308594 213.082031 194.691406 C 213.730469 194.074219 214.3125 193.398438 214.824219 192.667969 C 214.15625 192.125 213.4375 191.648438 212.675781 191.246094 C 211.914062 190.839844 211.121094 190.511719 210.296875 190.257812 C 209.472656 190.007812 208.632812 189.835938 207.773438 189.746094 C 206.917969 189.65625 206.058594 189.648438 205.199219 189.726562 C 204.339844 189.800781 203.496094 189.957031 202.667969 190.195312 C 201.835938 190.433594 201.039062 190.75 200.269531 191.140625 C 199.5 191.53125 198.777344 191.996094 198.097656 192.527344 C 197.417969 193.058594 196.796875 193.648438 196.230469 194.300781 C 197.203125 190.566406 198.472656 186.9375 200.039062 183.410156 C 200.757812 183.957031 201.523438 184.429688 202.339844 184.820312 C 203.152344 185.214844 204 185.519531 204.875 185.742188 C 205.753906 185.964844 206.644531 186.097656 207.546875 186.140625 C 208.449219 186.179688 209.347656 186.132812 210.242188 185.996094 C 211.132812 185.855469 212.003906 185.628906 212.851562 185.316406 C 213.699219 185 214.507812 184.605469 215.277344 184.128906 C 216.042969 183.652344 216.757812 183.101562 217.414062 182.480469 C 218.074219 181.859375 218.660156 181.179688 219.183594 180.4375 C 218.519531 179.902344 217.8125 179.429688 217.058594 179.027344 C 216.304688 178.625 215.523438 178.300781 214.707031 178.046875 C 213.894531 177.792969 213.0625 177.617188 212.214844 177.523438 C 211.367188 177.429688 210.515625 177.414062 209.664062 177.480469 C 208.816406 177.550781 207.980469 177.695312 207.15625 177.921875 C 206.332031 178.148438 205.539062 178.449219 204.773438 178.828125 C 204.007812 179.207031 203.285156 179.652344 202.605469 180.167969 C 201.925781 180.683594 201.300781 181.257812 200.726562 181.890625 C 202.386719 178.390625 204.289062 175.027344 206.433594 171.804688 C 207.109375 172.390625 207.835938 172.902344 208.613281 173.34375 C 209.390625 173.785156 210.203125 174.148438 211.050781 174.425781 C 211.902344 174.703125 212.769531 174.898438 213.65625 175.003906 C 214.546875 175.109375 215.433594 175.125 216.324219 175.054688 C 217.214844 174.984375 218.089844 174.824219 218.949219 174.578125 C 219.808594 174.332031 220.636719 174.003906 221.429688 173.59375 C 222.222656 173.183594 222.96875 172.695312 223.667969 172.136719 C 224.363281 171.578125 225 170.953125 225.574219 170.269531 C 225.003906 169.722656 224.390625 169.226562 223.734375 168.789062 C 223.078125 168.351562 222.390625 167.972656 221.667969 167.652344 C 220.945312 167.335938 220.199219 167.085938 219.433594 166.898438 C 218.667969 166.710938 217.890625 166.59375 217.101562 166.542969 C 216.316406 166.496094 215.53125 166.515625 214.746094 166.601562 C 213.960938 166.691406 213.191406 166.847656 212.433594 167.074219 C 211.679688 167.296875 210.949219 167.589844 210.242188 167.941406 C 209.535156 168.296875 208.867188 168.707031 208.234375 169.179688 C 210.53125 165.988281 213.027344 162.964844 215.722656 160.101562 C 216.167969 160.726562 216.667969 161.304688 217.222656 161.828125 C 217.78125 162.355469 218.382812 162.820312 219.035156 163.226562 C 219.683594 163.636719 220.363281 163.972656 221.082031 164.246094 C 221.796875 164.519531 222.53125 164.71875 223.289062 164.84375 C 224.042969 164.96875 224.800781 165.019531 225.566406 164.996094 C 226.332031 164.972656 227.089844 164.875 227.835938 164.703125 C 228.582031 164.527344 229.300781 164.285156 230 163.96875 C 230.699219 163.652344 231.359375 163.273438 231.980469 162.824219 C 231.617188 162.238281 231.207031 161.6875 230.746094 161.175781 C 230.285156 160.660156 229.78125 160.191406 229.238281 159.765625 C 228.695312 159.34375 228.117188 158.96875 227.507812 158.648438 C 226.898438 158.328125 226.265625 158.0625 225.605469 157.851562 C 224.949219 157.644531 224.277344 157.496094 223.59375 157.40625 C 222.910156 157.316406 222.222656 157.289062 221.535156 157.320312 C 220.847656 157.355469 220.167969 157.449219 219.496094 157.601562 C 218.820312 157.757812 218.167969 157.96875 217.535156 158.242188 C 219.976562 155.777344 222.5625 153.472656 225.289062 151.328125 C 225.292969 151.339844 225.292969 151.351562 225.289062 151.363281 C 225.730469 151.496094 226.175781 151.605469 226.628906 151.691406 C 227.078125 151.777344 227.535156 151.839844 227.992188 151.875 C 228.449219 151.914062 228.90625 151.929688 229.367188 151.921875 C 229.828125 151.914062 230.285156 151.882812 230.742188 151.828125 C 231.195312 151.773438 231.648438 151.695312 232.097656 151.59375 C 232.542969 151.492188 232.988281 151.367188 233.421875 151.222656 C 233.859375 151.074219 234.285156 150.90625 234.703125 150.714844 C 235.121094 150.527344 235.527344 150.316406 235.925781 150.082031 C 236.320312 149.851562 236.703125 149.597656 237.074219 149.328125 C 237.445312 149.054688 237.800781 148.765625 238.144531 148.457031 C 238.484375 148.148438 238.808594 147.824219 239.117188 147.484375 C 239.425781 147.144531 239.714844 146.785156 239.988281 146.417969 C 240.257812 146.046875 240.507812 145.660156 240.742188 145.265625 C 240.972656 144.867188 241.183594 144.460938 241.375 144.042969 C 241.566406 143.625 241.734375 143.195312 241.882812 142.761719 C 242.027344 142.324219 242.152344 141.882812 242.253906 141.433594 C 241.390625 141.175781 240.511719 141.003906 239.613281 140.921875 C 238.714844 140.839844 237.820312 140.851562 236.921875 140.949219 C 236.027344 141.046875 235.152344 141.234375 234.292969 141.507812 C 233.433594 141.785156 232.613281 142.140625 231.824219 142.582031 C 231.039062 143.023438 230.304688 143.539062 229.621094 144.125 C 228.9375 144.714844 228.320312 145.363281 227.769531 146.078125 C 227.214844 146.789062 226.738281 147.550781 226.339844 148.359375 C 225.941406 149.167969 225.625 150.007812 225.394531 150.878906 C 223.183594 152.105469 221.089844 153.378906 219.121094 154.691406 C 219.527344 154.183594 219.890625 153.644531 220.207031 153.078125 C 220.523438 152.511719 220.792969 151.921875 221.015625 151.308594 C 221.238281 150.699219 221.40625 150.074219 221.527344 149.433594 C 221.644531 148.792969 221.710938 148.148438 221.726562 147.5 C 221.738281 146.847656 221.699219 146.199219 221.605469 145.558594 C 221.515625 144.914062 221.371094 144.28125 221.175781 143.660156 C 220.976562 143.039062 220.734375 142.441406 220.4375 141.859375 C 220.144531 141.28125 219.804688 140.726562 219.421875 140.203125 C 218.75 140.628906 218.128906 141.117188 217.554688 141.671875 C 216.980469 142.222656 216.464844 142.824219 216.011719 143.480469 C 215.558594 144.132812 215.175781 144.824219 214.859375 145.558594 C 214.546875 146.289062 214.308594 147.042969 214.144531 147.824219 C 213.980469 148.601562 213.894531 149.390625 213.890625 150.1875 C 213.886719 150.984375 213.957031 151.773438 214.109375 152.554688 C 214.265625 153.335938 214.492188 154.09375 214.796875 154.828125 C 215.101562 155.566406 215.476562 156.261719 215.917969 156.921875 C 213.6875 158.558594 211.632812 160.234375 209.730469 161.945312 C 210.019531 161.351562 210.253906 160.742188 210.441406 160.113281 C 210.628906 159.480469 210.765625 158.839844 210.847656 158.1875 C 210.929688 157.535156 210.957031 156.878906 210.929688 156.222656 C 210.902344 155.566406 210.824219 154.914062 210.6875 154.273438 C 210.554688 153.628906 210.371094 153 210.132812 152.386719 C 209.894531 151.773438 209.609375 151.183594 209.273438 150.617188 C 208.941406 150.050781 208.5625 149.519531 208.136719 149.015625 C 207.714844 148.511719 207.253906 148.046875 206.753906 147.617188 C 206.207031 148.179688 205.722656 148.792969 205.296875 149.449219 C 204.871094 150.105469 204.515625 150.800781 204.226562 151.527344 C 203.9375 152.257812 203.71875 153.007812 203.578125 153.777344 C 203.4375 154.550781 203.375 155.328125 203.386719 156.109375 C 203.398438 156.894531 203.484375 157.671875 203.648438 158.4375 C 203.816406 159.203125 204.050781 159.945312 204.363281 160.664062 C 204.675781 161.386719 205.050781 162.066406 205.496094 162.710938 C 205.945312 163.355469 206.449219 163.953125 207.011719 164.496094 C 205.175781 166.320312 203.445312 168.242188 201.820312 170.257812 C 201.898438 169.652344 201.925781 169.042969 201.90625 168.433594 C 201.890625 167.824219 201.824219 167.222656 201.714844 166.621094 C 201.605469 166.019531 201.449219 165.433594 201.25 164.859375 C 201.046875 164.28125 200.804688 163.722656 200.519531 163.1875 C 200.234375 162.648438 199.90625 162.132812 199.542969 161.644531 C 199.179688 161.15625 198.777344 160.699219 198.34375 160.273438 C 197.910156 159.84375 197.445312 159.453125 196.949219 159.097656 C 196.453125 158.742188 195.9375 158.425781 195.390625 158.148438 C 195.007812 158.796875 194.6875 159.472656 194.429688 160.179688 C 194.171875 160.890625 193.984375 161.613281 193.867188 162.359375 C 193.746094 163.101562 193.699219 163.851562 193.71875 164.601562 C 193.742188 165.355469 193.835938 166.101562 194 166.835938 C 194.164062 167.570312 194.394531 168.285156 194.691406 168.976562 C 194.988281 169.667969 195.351562 170.324219 195.773438 170.945312 C 196.195312 171.570312 196.675781 172.148438 197.207031 172.679688 C 197.738281 173.210938 198.316406 173.6875 198.9375 174.113281 C 197.582031 176.070312 196.371094 178.023438 195.304688 179.964844 C 195.300781 178.863281 195.144531 177.785156 194.835938 176.726562 C 193.878906 173.425781 192.542969 172.523438 189.703125 171.078125 C 188.070312 173.800781 186.746094 176.988281 187.695312 180.285156 C 188.527344 183.167969 190.238281 184.03125 192.589844 185.535156 C 190.488281 190.390625 188.984375 195.425781 188.082031 200.644531 C 187.101562 192.964844 185.074219 185.578125 181.996094 178.480469 C 182.785156 177.96875 183.519531 177.390625 184.199219 176.742188 C 184.875 176.09375 185.488281 175.382812 186.027344 174.617188 C 186.570312 173.847656 187.035156 173.035156 187.417969 172.179688 C 187.804688 171.324219 188.105469 170.4375 188.320312 169.523438 C 188.535156 168.605469 188.660156 167.679688 188.695312 166.742188 C 188.734375 165.800781 188.679688 164.867188 188.535156 163.9375 C 188.394531 163.011719 188.164062 162.105469 187.84375 161.21875 C 187.527344 160.335938 187.128906 159.488281 186.648438 158.683594 C 185.449219 159.292969 184.359375 160.050781 183.371094 160.960938 C 182.386719 161.871094 181.539062 162.898438 180.832031 164.039062 C 180.128906 165.183594 179.589844 166.398438 179.21875 167.691406 C 178.847656 168.980469 178.65625 170.296875 178.644531 171.640625 C 177.285156 169.167969 175.796875 166.769531 174.1875 164.453125 C 174.953125 163.9375 175.664062 163.351562 176.316406 162.695312 C 176.972656 162.042969 177.558594 161.335938 178.078125 160.570312 C 178.597656 159.804688 179.042969 159 179.410156 158.148438 C 179.777344 157.300781 180.058594 156.425781 180.261719 155.519531 C 180.460938 154.617188 180.574219 153.703125 180.601562 152.777344 C 180.628906 151.855469 180.570312 150.933594 180.421875 150.019531 C 180.273438 149.109375 180.042969 148.21875 179.722656 147.347656 C 179.40625 146.480469 179.011719 145.648438 178.535156 144.851562 C 177.871094 145.191406 177.234375 145.578125 176.625 146.015625 C 176.019531 146.449219 175.449219 146.929688 174.914062 147.457031 C 174.378906 147.980469 173.890625 148.539062 173.441406 149.140625 C 172.996094 149.738281 172.59375 150.371094 172.242188 151.03125 C 171.894531 151.691406 171.59375 152.375 171.347656 153.082031 C 171.101562 153.789062 170.910156 154.507812 170.777344 155.246094 C 170.640625 155.980469 170.5625 156.722656 170.539062 157.46875 C 170.515625 158.21875 170.550781 158.964844 170.644531 159.707031 C 168.648438 157.230469 166.523438 154.871094 164.269531 152.628906 C 164.964844 151.960938 165.585938 151.230469 166.132812 150.4375 C 166.683594 149.644531 167.148438 148.808594 167.53125 147.921875 C 167.917969 147.039062 168.210938 146.125 168.414062 145.183594 C 168.617188 144.242188 168.722656 143.289062 168.738281 142.324219 C 168.753906 141.359375 168.671875 140.40625 168.5 139.457031 C 168.324219 138.507812 168.058594 137.585938 167.703125 136.691406 C 167.347656 135.796875 166.90625 134.945312 166.382812 134.136719 C 165.859375 133.328125 165.257812 132.578125 164.585938 131.890625 C 163.972656 132.414062 163.40625 132.984375 162.886719 133.601562 C 162.367188 134.21875 161.902344 134.875 161.492188 135.570312 C 161.078125 136.261719 160.726562 136.988281 160.4375 137.738281 C 160.144531 138.492188 159.917969 139.265625 159.753906 140.054688 C 159.589844 140.84375 159.492188 141.644531 159.457031 142.449219 C 159.425781 143.257812 159.460938 144.058594 159.5625 144.859375 C 159.660156 145.660156 159.828125 146.449219 160.058594 147.222656 C 160.289062 147.996094 160.582031 148.746094 160.9375 149.46875 C 158.601562 147.367188 156.0625 145.3125 153.320312 143.300781 C 153.59375 142.898438 153.84375 142.480469 154.074219 142.050781 C 154.304688 141.621094 154.515625 141.179688 154.699219 140.730469 C 154.886719 140.28125 155.050781 139.820312 155.191406 139.355469 C 155.332031 138.886719 155.449219 138.414062 155.542969 137.9375 C 155.632812 137.457031 155.703125 136.976562 155.75 136.492188 C 155.792969 136.007812 155.816406 135.519531 155.8125 135.03125 C 155.808594 134.546875 155.78125 134.058594 155.726562 133.574219 C 155.675781 133.089844 155.601562 132.609375 155.5 132.132812 C 155.398438 131.65625 155.277344 131.183594 155.128906 130.71875 C 154.984375 130.253906 154.8125 129.796875 154.621094 129.351562 C 154.425781 128.902344 154.214844 128.464844 153.976562 128.039062 C 153.742188 127.613281 153.484375 127.199219 153.207031 126.800781 C 152.929688 126.398438 152.632812 126.011719 152.316406 125.640625 C 152 125.273438 151.664062 124.917969 151.3125 124.582031 C 150.960938 124.242188 150.59375 123.921875 150.210938 123.625 C 149.828125 123.324219 149.429688 123.042969 149.019531 122.78125 C 148.546875 123.425781 148.128906 124.101562 147.769531 124.816406 C 147.410156 125.527344 147.109375 126.265625 146.867188 127.027344 C 146.625 127.789062 146.449219 128.5625 146.335938 129.355469 C 146.222656 130.144531 146.175781 130.941406 146.191406 131.738281 C 146.207031 132.535156 146.289062 133.328125 146.4375 134.113281 C 146.582031 134.898438 146.792969 135.667969 147.066406 136.417969 C 147.335938 137.167969 147.667969 137.890625 148.058594 138.589844 C 148.449219 139.285156 148.894531 139.945312 149.394531 140.566406 C 146.972656 138.960938 144.402344 137.40625 141.6875 135.902344 C 141.546875 135.371094 141.378906 134.84375 141.183594 134.328125 C 140.992188 133.8125 140.773438 133.304688 140.527344 132.8125 C 140.285156 132.316406 140.015625 131.835938 139.722656 131.371094 C 139.429688 130.902344 139.113281 130.449219 138.777344 130.015625 C 138.4375 129.578125 138.082031 129.160156 137.703125 128.761719 C 137.320312 128.359375 136.921875 127.980469 136.503906 127.621094 C 136.089844 127.261719 135.652344 126.921875 135.203125 126.605469 C 134.75 126.289062 134.285156 125.996094 133.804688 125.726562 C 133.324219 125.457031 132.832031 125.210938 132.324219 124.992188 C 131.820312 124.773438 131.304688 124.578125 130.78125 124.410156 C 130.257812 124.242188 129.726562 124.097656 129.1875 123.984375 C 128.648438 123.867188 128.105469 123.78125 127.554688 123.71875 C 127.007812 123.65625 126.460938 123.625 125.910156 123.617188 C 125.359375 123.613281 124.808594 123.632812 124.257812 123.683594 C 123.710938 123.734375 123.164062 123.808594 122.625 123.914062 C 122.082031 124.015625 121.546875 124.148438 121.019531 124.304688 C 121.144531 124.859375 121.296875 125.402344 121.476562 125.9375 C 121.652344 126.472656 121.859375 127 122.09375 127.515625 C 122.328125 128.03125 122.585938 128.53125 122.871094 129.019531 C 123.15625 129.511719 123.464844 129.984375 123.796875 130.441406 C 124.132812 130.894531 124.488281 131.335938 124.867188 131.753906 C 125.246094 132.175781 125.644531 132.574219 126.0625 132.953125 C 126.480469 133.332031 126.921875 133.691406 127.375 134.023438 C 127.832031 134.359375 128.304688 134.667969 128.792969 134.953125 C 129.28125 135.242188 129.78125 135.5 130.292969 135.734375 C 130.808594 135.96875 131.335938 136.175781 131.871094 136.355469 C 132.40625 136.535156 132.949219 136.691406 133.5 136.8125 C 134.050781 136.9375 134.609375 137.035156 135.167969 137.101562 C 135.730469 137.167969 136.292969 137.207031 136.859375 137.214844 C 137.421875 137.226562 137.988281 137.207031 138.550781 137.15625 C 139.113281 137.109375 139.671875 137.03125 140.226562 136.925781 C 140.785156 136.820312 141.332031 136.683594 141.871094 136.523438 L 141.871094 136.472656 C 145.222656 139.105469 148.394531 141.929688 151.390625 144.957031 C 150.613281 144.625 149.8125 144.367188 148.984375 144.175781 C 148.160156 143.988281 147.324219 143.875 146.480469 143.835938 C 145.636719 143.796875 144.792969 143.832031 143.953125 143.941406 C 143.117188 144.050781 142.292969 144.234375 141.488281 144.492188 C 140.679688 144.746094 139.902344 145.070312 139.152344 145.46875 C 138.40625 145.863281 137.699219 146.320312 137.03125 146.839844 C 136.363281 147.359375 135.746094 147.9375 135.179688 148.566406 C 134.617188 149.195312 134.109375 149.871094 133.664062 150.589844 C 134.429688 151.140625 135.238281 151.609375 136.09375 151.996094 C 136.949219 152.386719 137.835938 152.6875 138.75 152.898438 C 139.667969 153.113281 140.59375 153.234375 141.535156 153.265625 C 142.472656 153.292969 143.40625 153.230469 144.332031 153.078125 C 145.257812 152.921875 146.164062 152.675781 147.039062 152.34375 C 147.917969 152.011719 148.757812 151.59375 149.554688 151.09375 C 150.351562 150.597656 151.089844 150.023438 151.773438 149.378906 C 152.457031 148.734375 153.070312 148.027344 153.617188 147.257812 C 156.921875 150.773438 159.988281 154.488281 162.8125 158.40625 C 162.035156 157.824219 161.214844 157.316406 160.351562 156.882812 C 159.484375 156.445312 158.589844 156.089844 157.660156 155.8125 C 156.734375 155.535156 155.789062 155.34375 154.824219 155.230469 C 153.863281 155.121094 152.898438 155.09375 151.933594 155.15625 C 150.964844 155.214844 150.011719 155.359375 149.070312 155.585938 C 148.128906 155.8125 147.214844 156.121094 146.328125 156.507812 C 145.441406 156.898438 144.59375 157.359375 143.789062 157.898438 C 142.984375 158.4375 142.230469 159.039062 141.53125 159.710938 C 141.882812 160.132812 142.25 160.535156 142.644531 160.917969 C 143.035156 161.300781 143.441406 161.664062 143.867188 162.003906 C 144.296875 162.347656 144.738281 162.667969 145.195312 162.96875 C 145.65625 163.265625 146.128906 163.539062 146.613281 163.792969 C 147.097656 164.042969 147.597656 164.269531 148.105469 164.472656 C 148.613281 164.675781 149.128906 164.851562 149.65625 165 C 150.183594 165.152344 150.714844 165.277344 151.253906 165.375 C 151.792969 165.472656 152.332031 165.542969 152.878906 165.585938 C 153.421875 165.628906 153.96875 165.648438 154.515625 165.636719 C 155.0625 165.625 155.609375 165.585938 156.152344 165.523438 C 156.695312 165.457031 157.234375 165.367188 157.769531 165.246094 C 158.300781 165.128906 158.828125 164.984375 159.347656 164.8125 C 159.867188 164.644531 160.378906 164.445312 160.878906 164.226562 C 161.378906 164.003906 161.867188 163.757812 162.34375 163.488281 C 162.816406 163.21875 163.28125 162.921875 163.726562 162.609375 C 164.171875 162.292969 164.601562 161.953125 165.015625 161.59375 C 167.652344 165.554688 169.988281 169.679688 172.019531 173.980469 C 171.320312 173.203125 170.554688 172.496094 169.71875 171.863281 C 168.882812 171.230469 167.996094 170.683594 167.058594 170.21875 C 166.121094 169.757812 165.144531 169.386719 164.136719 169.105469 C 163.128906 168.828125 162.101562 168.648438 161.058594 168.566406 C 160.011719 168.484375 158.972656 168.5 157.929688 168.617188 C 156.890625 168.730469 155.871094 168.945312 154.871094 169.253906 C 153.871094 169.566406 152.910156 169.96875 151.984375 170.460938 C 151.0625 170.953125 150.191406 171.53125 149.378906 172.191406 C 149.695312 172.644531 150.039062 173.078125 150.398438 173.5 C 150.761719 173.917969 151.144531 174.316406 151.546875 174.699219 C 151.949219 175.078125 152.367188 175.4375 152.808594 175.777344 C 153.246094 176.113281 153.699219 176.429688 154.167969 176.722656 C 154.640625 177.015625 155.121094 177.28125 155.621094 177.527344 C 156.117188 177.769531 156.625 177.988281 157.144531 178.179688 C 157.664062 178.371094 158.191406 178.539062 158.726562 178.675781 C 159.261719 178.816406 159.800781 178.929688 160.347656 179.015625 C 160.894531 179.097656 161.445312 179.15625 162 179.1875 C 162.550781 179.214844 163.105469 179.21875 163.65625 179.191406 C 164.210938 179.164062 164.757812 179.109375 165.308594 179.03125 C 165.855469 178.949219 166.394531 178.839844 166.933594 178.703125 C 167.46875 178.566406 167.996094 178.40625 168.519531 178.214844 C 169.039062 178.027344 169.546875 177.8125 170.046875 177.570312 C 170.542969 177.328125 171.03125 177.066406 171.5 176.773438 C 171.972656 176.484375 172.429688 176.171875 172.871094 175.839844 C 174.792969 180.171875 176.359375 184.628906 177.570312 189.214844 C 176.871094 188.417969 176.105469 187.691406 175.273438 187.039062 C 174.4375 186.386719 173.546875 185.820312 172.601562 185.339844 C 171.65625 184.859375 170.675781 184.472656 169.660156 184.183594 C 168.640625 183.890625 167.601562 183.699219 166.546875 183.609375 C 165.492188 183.515625 164.4375 183.527344 163.386719 183.636719 C 162.332031 183.746094 161.296875 183.957031 160.285156 184.269531 C 159.273438 184.578125 158.296875 184.984375 157.363281 185.480469 C 156.429688 185.980469 155.546875 186.5625 154.726562 187.226562 C 155.039062 187.675781 155.375 188.109375 155.734375 188.523438 C 156.09375 188.941406 156.46875 189.335938 156.867188 189.714844 C 157.265625 190.089844 157.679688 190.449219 158.113281 190.785156 C 158.546875 191.121094 158.992188 191.433594 159.457031 191.726562 C 159.921875 192.019531 160.398438 192.285156 160.890625 192.53125 C 161.382812 192.773438 161.882812 192.992188 162.394531 193.1875 C 162.910156 193.378906 163.429688 193.546875 163.957031 193.691406 C 164.488281 193.832031 165.023438 193.949219 165.5625 194.035156 C 166.105469 194.125 166.648438 194.1875 167.195312 194.21875 C 167.742188 194.253906 168.289062 194.261719 168.835938 194.242188 C 169.382812 194.222656 169.929688 194.171875 170.472656 194.097656 C 171.015625 194.023438 171.554688 193.921875 172.085938 193.792969 C 172.617188 193.664062 173.144531 193.511719 173.660156 193.332031 C 174.179688 193.148438 174.6875 192.945312 175.183594 192.710938 C 175.679688 192.480469 176.164062 192.226562 176.636719 191.945312 C 177.105469 191.667969 177.5625 191.363281 178.003906 191.039062 C 179.824219 198.671875 180.550781 206.40625 180.179688 214.242188 C 166.625 213.554688 153.101562 213.957031 139.609375 215.445312 C 122.414062 217.296875 105.613281 220.964844 89.207031 226.457031 C 84.777344 214.589844 82.574219 202.320312 82.589844 189.652344 C 82.589844 131.617188 129.585938 84.570312 187.558594 84.570312 C 245.535156 84.570312 292.53125 131.617188 292.53125 189.652344 Z M 292.53125 189.652344 " fill-opacity="1" fill-rule="nonzero"/></g><g fill="#57744b" fill-opacity="1"><g transform="translate(90.279027, 314.592278)"><g><path d="M 5.609375 -4.277344 L 5.683594 -3.941406 C 5.175781 -3.152344 4.53125 -2.453125 4.128906 -1.601562 C 3.757812 -0.875 3.585938 -0.160156 2.988281 0.472656 C 3.253906 2.917969 5.527344 3.363281 7.207031 4.589844 C 7.734375 4.976562 8.46875 4.964844 8.96875 4.5625 C 9.503906 4.179688 9.992188 3.722656 10.390625 3.253906 C 11.089844 2.394531 11.34375 1.398438 11.882812 0.484375 C 12.441406 -0.609375 13.214844 -1.660156 13.875 -2.683594 C 14.382812 -3.472656 15.023438 -4.171875 16.027344 -4.300781 C 16.339844 -3.808594 17.054688 -3.640625 17.554688 -3.367188 C 18.054688 -3.089844 18.523438 -2.691406 19.003906 -2.382812 C 19.609375 -2.042969 20.234375 -1.738281 20.792969 -1.328125 C 21.214844 -1.007812 21.609375 -0.417969 22.253906 -0.4375 C 22.421875 0.878906 21.578125 1.886719 20.78125 2.824219 C 19.808594 4.035156 19.003906 5.359375 18.101562 6.617188 L 18.15625 7.28125 L 17.277344 7.441406 C 16.808594 8.542969 16.679688 9.425781 16.730469 10.621094 C 17.199219 10.875 17.53125 11.332031 17.957031 11.652344 C 18.367188 11.917969 18.84375 12.078125 19.277344 12.308594 C 20.140625 12.769531 20.886719 13.488281 21.882812 13.746094 C 21.945312 14.027344 22.273438 14.191406 22.53125 14.015625 L 23.136719 13.679688 L 23.253906 12.742188 C 24.898438 12.296875 25.179688 10.203125 25.746094 8.875 C 26.113281 8 26.597656 7.097656 27.273438 6.421875 C 27.585938 6.089844 28.011719 5.878906 28.253906 5.503906 C 28.550781 5.113281 28.679688 4.617188 28.851562 4.195312 L 29.378906 4.050781 C 29.636719 3.199219 29.882812 2.441406 30.472656 1.753906 C 31.070312 0.976562 31.597656 0.300781 32.023438 -0.585938 C 32.417969 -1.496094 33.027344 -2.214844 33.484375 -3.082031 C 33.890625 -3.789062 34.277344 -4.460938 35.027344 -4.800781 C 35.269531 -5.851562 35.734375 -6.425781 36.515625 -7.035156 C 36.738281 -7.230469 36.878906 -7.527344 36.910156 -7.796875 C 36.949219 -8.011719 36.992188 -8.230469 37.101562 -8.398438 C 37.289062 -8.765625 37.292969 -9.148438 37.109375 -9.460938 C 36.445312 -10.757812 35.476562 -11.964844 33.949219 -12.074219 C 33.679688 -12.101562 33.382812 -12.246094 33.1875 -12.46875 L 32.726562 -12.957031 C 32.484375 -13.257812 32.078125 -13.375 31.707031 -13.324219 C 31.277344 -13.261719 30.976562 -13.019531 30.792969 -12.65625 C 30.289062 -11.574219 29.285156 -10.769531 29.058594 -9.511719 L 28.121094 -8.953125 C 28.09375 -8.390625 27.683594 -8.125 27.382812 -7.734375 C 27.085938 -7.347656 26.980469 -6.882812 26.816406 -6.40625 C 26.429688 -5.347656 25.789062 -4.355469 24.957031 -3.585938 C 24.085938 -3.664062 23.460938 -3.96875 22.640625 -4.351562 C 22.796875 -5.121094 21.839844 -5.589844 21.273438 -5.910156 C 20.214844 -6.445312 19.164062 -7.070312 18.019531 -7.46875 L 17.789062 -8.390625 C 18.183594 -9.15625 18.480469 -9.542969 19.128906 -10.097656 L 19.082031 -10.175781 C 19.324219 -11.082031 19.535156 -11.480469 20.203125 -12.066406 C 20.859375 -12.707031 21.214844 -13.640625 21.800781 -14.328125 L 21.671875 -14.796875 L 22.246094 -14.71875 C 22.800781 -15.425781 22.949219 -15.960938 23.09375 -16.785156 C 23.125 -16.910156 23.214844 -17.046875 23.316406 -17.128906 L 23.558594 -17.359375 C 23.757812 -17.519531 23.824219 -17.769531 23.773438 -17.992188 L 23.511719 -18.789062 C 23.453125 -18.925781 23.339844 -19.046875 23.179688 -19.101562 C 22.589844 -19.386719 22.371094 -19.574219 22.058594 -20.066406 C 21.933594 -20.242188 21.703125 -20.339844 21.5 -20.328125 C 20.859375 -20.304688 19.96875 -20.878906 19.421875 -21.230469 C 19.308594 -21.351562 19.191406 -21.476562 19.191406 -21.621094 C 19.105469 -21.867188 18.921875 -22.035156 18.707031 -22.078125 C 18.402344 -22.128906 18.144531 -22.101562 17.828125 -22.0625 C 17.625 -22.046875 17.46875 -21.953125 17.390625 -21.761719 C 17.03125 -21.125 16.550781 -20.753906 15.960938 -20.214844 L 16.113281 -19.925781 C 15.75 -19.285156 15.480469 -18.636719 15.082031 -18.023438 C 14.730469 -17.476562 14.195312 -17.09375 13.875 -16.523438 C 13.46875 -15.816406 13.371094 -14.382812 12.433594 -14.210938 C 12.109375 -13.402344 11.382812 -12.949219 10.953125 -12.210938 C 10.492188 -11.492188 10.222656 -10.695312 9.761719 -9.976562 C 9.230469 -9.15625 8.863281 -8.28125 8.210938 -7.492188 C 7.621094 -6.804688 6.964844 -6.164062 6.789062 -5.210938 L 6.050781 -4.816406 Z M 5.609375 -4.277344 "/></g></g></g><g fill="#57744b" fill-opacity="1"><g transform="translate(118.590631, 332.234245)"><g><path d="M 1.777344 -0.320312 C 1.59375 -0.175781 1.589844 0.171875 1.839844 0.3125 C 2.382812 0.609375 2.8125 1.078125 3.417969 1.3125 C 4.195312 1.566406 5.160156 1.542969 5.96875 1.371094 L 6.570312 0.253906 L 6.453125 -0.0078125 C 7.109375 -0.804688 7.9375 -1.488281 8.566406 -2.335938 C 9.160156 -3.199219 9.601562 -3.554688 10.476562 -4.132812 C 11.460938 -3.40625 12.578125 -3.023438 13.738281 -2.75 C 14.921875 -2.429688 15.925781 -1.519531 17.121094 -1.453125 L 17.859375 -0.429688 C 17.570312 0.898438 17.648438 2.277344 17.613281 3.617188 C 17.601562 4.789062 17.4375 5.902344 17.996094 6.945312 L 18.910156 6.945312 C 19.222656 7.71875 20.101562 7.925781 20.832031 8.074219 C 21.710938 8.28125 22.5625 8.78125 23.472656 8.914062 C 23.601562 8.917969 23.714844 8.964844 23.8125 9.042969 C 24 9.246094 24.242188 9.296875 24.453125 9.203125 L 24.660156 9.109375 C 24.910156 9.027344 25.101562 8.753906 25.039062 8.46875 C 24.875 7.53125 24.980469 6.570312 25.109375 5.664062 C 25.238281 4.535156 25.195312 3.515625 25.101562 2.390625 C 25.046875 1.28125 25.375 0.316406 25.511719 -0.722656 C 25.648438 -1.757812 25.472656 -2.785156 25.535156 -3.851562 C 25.601562 -4.824219 25.449219 -5.671875 25.683594 -6.625 C 25.894531 -7.632812 25.441406 -8.722656 25.488281 -9.75 C 25.523438 -10.871094 25.917969 -11.898438 25.75 -13.050781 C 25.640625 -13.789062 25.261719 -14.851562 25.949219 -15.503906 C 25.742188 -16.671875 25.578125 -18.171875 25.777344 -19.488281 C 25.867188 -20.066406 25.519531 -20.636719 24.972656 -20.800781 C 24.175781 -21.105469 23.421875 -21.527344 22.519531 -21.566406 C 22.3125 -21.820312 22.054688 -22.050781 21.816406 -22.230469 C 21.457031 -22.542969 20.972656 -22.640625 20.566406 -22.492188 C 20.1875 -22.417969 19.90625 -22.132812 19.738281 -21.804688 C 19.539062 -21.402344 19.363281 -20.945312 19.089844 -20.574219 C 18.667969 -20.039062 18.121094 -19.636719 17.597656 -19.183594 C 16.539062 -18.238281 15.699219 -17.078125 14.542969 -16.214844 C 14.394531 -15.488281 14.214844 -14.902344 13.601562 -14.441406 C 13.175781 -14.125 13 -14.015625 12.734375 -13.550781 C 12.050781 -12.332031 11 -11.296875 9.808594 -10.578125 L 9.960938 -9.953125 C 9.207031 -9.457031 9.027344 -9.222656 8.554688 -8.441406 C 8.207031 -7.878906 7.625 -7.492188 7.375 -6.847656 L 6.492188 -6.359375 L 6.195312 -5.46875 L 5.582031 -5.355469 L 5.390625 -4.511719 L 4.097656 -3.527344 C 3.859375 -2.222656 2.296875 -1.558594 1.777344 -0.320312 Z M 18.46875 -8.957031 C 18.105469 -8.007812 18.089844 -7.621094 18.238281 -6.648438 L 17.785156 -6.035156 L 18.148438 -5.503906 L 17.242188 -5.070312 C 16.324219 -5.636719 15.347656 -5.925781 14.359375 -6.304688 C 13.449219 -6.65625 13.226562 -7.21875 12.890625 -8.042969 L 13.652344 -8.101562 C 14.226562 -9.363281 15.007812 -10.5 16.078125 -11.355469 L 16.214844 -12.390625 C 16.925781 -12.773438 17.28125 -12.898438 17.59375 -13.605469 C 19.046875 -12.394531 18.121094 -10.660156 18.46875 -8.957031 Z M 18.46875 -8.957031 "/></g></g></g><g fill="#57744b" fill-opacity="1"><g transform="translate(148.259235, 343.180503)"><g><path d="M 23.621094 3.832031 C 23.699219 3.84375 23.746094 3.8125 23.828125 3.824219 L 24.507812 3.941406 C 24.710938 3.972656 24.882812 3.921875 25.023438 3.820312 L 25.875 3.179688 C 25.6875 3.066406 25.515625 2.871094 25.507812 2.664062 C 25.429688 2.15625 25.390625 1.65625 25.226562 1.171875 C 25 0.554688 24.632812 0.0390625 24.441406 -0.527344 C 24.085938 -1.621094 23.691406 -2.925781 24.007812 -4.070312 C 23.066406 -5.589844 22.671875 -7.390625 22.929688 -9.164062 C 23.980469 -9.519531 25.085938 -9.953125 25.84375 -10.773438 C 26.546875 -11.523438 26.90625 -12.660156 27.421875 -13.519531 C 27.980469 -14.375 28.238281 -15.652344 28.40625 -16.65625 C 28.628906 -17.730469 28.21875 -18.710938 27.757812 -19.652344 C 26.90625 -21.449219 26.328125 -23.15625 24.464844 -24.089844 C 23.394531 -24.601562 22.347656 -25.234375 21.183594 -25.429688 C 20.660156 -25.519531 20.117188 -25.484375 19.558594 -25.582031 C 19.003906 -25.714844 18.5625 -26.039062 18.074219 -26.328125 L 17.492188 -26.054688 C 16.9375 -26.4375 16.226562 -26.640625 15.578125 -26.214844 C 14.917969 -26.449219 14.289062 -26.886719 13.605469 -27 C 12.964844 -27.109375 12.390625 -26.875 11.773438 -26.898438 C 11.109375 -26.886719 10.550781 -27.230469 9.921875 -27.417969 C 9.601562 -27.472656 9.320312 -27.519531 9.03125 -27.527344 C 8.167969 -27.550781 7.371094 -26.984375 7.109375 -26.160156 C 6.867188 -25.457031 6.742188 -24.738281 6.730469 -23.914062 L 6.679688 -23.878906 L 6.824219 -22.78125 C 6.324219 -22.496094 6.441406 -21.734375 6.320312 -21.257812 C 6.207031 -20.578125 5.890625 -19.929688 5.8125 -19.238281 C 5.71875 -18.429688 5.75 -17.640625 5.539062 -16.890625 C 5.378906 -16.175781 5.1875 -15.546875 5.273438 -14.832031 L 4.859375 -14.324219 C 4.964844 -13.730469 5.054688 -13.054688 4.953125 -12.453125 C 4.894531 -11.84375 4.515625 -11.328125 4.292969 -10.746094 C 3.890625 -9.578125 4.183594 -8.371094 4.058594 -7.15625 C 3.996094 -6.546875 3.667969 -6.066406 3.574219 -5.503906 C 3.4375 -4.949219 3.46875 -4.40625 3.382812 -3.886719 C 3.175781 -2.679688 3.273438 -1.304688 2.714844 -0.199219 C 2.703125 -0.121094 2.722656 0.0078125 2.757812 0.0546875 C 3.449219 0.582031 4.453125 1.25 5.308594 0.816406 C 5.351562 0.824219 5.398438 0.789062 5.476562 0.804688 C 6.285156 1.144531 7.1875 1.421875 8.089844 1.453125 C 8.785156 1.488281 9.46875 1.355469 10.1875 1.269531 C 10.304688 1.289062 10.378906 1.097656 10.273438 0.996094 C 10.246094 0.910156 10.21875 0.820312 10.265625 0.789062 C 10.515625 0.292969 10.757812 -0.160156 10.773438 -0.734375 C 10.789062 -1.3125 10.667969 -1.828125 10.851562 -2.414062 C 11.113281 -3.484375 11.117188 -4.476562 11.300781 -5.558594 C 11.507812 -6.554688 11.566406 -7.867188 12.277344 -8.652344 C 12.785156 -9.226562 13.484375 -9.191406 14.183594 -9.199219 C 14.820312 -8.304688 15.050781 -7.234375 15.542969 -6.242188 C 16.035156 -5.253906 16.09375 -4.871094 15.9375 -3.699219 C 16.8125 -2.519531 17.164062 -1.675781 17.199219 -0.183594 L 17.59375 -0.078125 L 17.359375 0.585938 L 17.828125 0.992188 C 17.746094 1.476562 17.617188 1.988281 17.828125 2.4375 C 17.941406 2.746094 18.242188 2.921875 18.457031 3.121094 C 18.628906 3.316406 18.878906 3.316406 19.066406 3.183594 C 19.117188 3.109375 19.253906 3.050781 19.375 3.070312 C 20.148438 3.121094 20.464844 3.214844 21.210938 3.671875 L 21.773438 3.519531 C 22.609375 3.949219 22.769531 3.976562 23.621094 3.832031 Z M 16.671875 -22.683594 C 17.15625 -22.355469 18.097656 -21.578125 18.707031 -22.011719 C 18.929688 -21.394531 19.183594 -19.949219 19.882812 -19.707031 C 19.5 -18.90625 19.871094 -17.191406 20.0625 -16.375 C 19.34375 -15.050781 18.378906 -13.976562 17.546875 -12.714844 C 16.863281 -12.582031 16.132812 -12.417969 15.417969 -12.578125 C 14.65625 -12.707031 13.949219 -13.160156 13.175781 -13 L 12.789062 -15.089844 C 13.445312 -16.296875 13.578125 -17.554688 13.847656 -18.910156 C 13.9375 -19.433594 14.230469 -19.960938 14.238281 -20.496094 C 14.199219 -21 13.867188 -21.46875 13.957031 -21.988281 C 14.476562 -22.148438 14.734375 -22.433594 15.128906 -22.824219 L 16.03125 -22.296875 L 16.085938 -22.621094 Z M 16.671875 -22.683594 "/></g></g></g><g fill="#57744b" fill-opacity="1"><g transform="translate(179.05957, 347.996926)"><g><path d="M 24.683594 -28.339844 C 24.75 -28.832031 24.25 -29.222656 23.996094 -29.542969 C 23.066406 -29.351562 22.457031 -29.292969 21.515625 -29.472656 C 21.078125 -29.09375 20.597656 -28.792969 20.371094 -28.257812 C 20.21875 -27.847656 20.273438 -27.320312 20.207031 -26.871094 C 20.070312 -25.847656 19.570312 -24.898438 19.148438 -23.949219 C 18.6875 -22.960938 18.636719 -21.898438 18.21875 -20.871094 C 17.757812 -19.839844 17.707031 -18.738281 17.453125 -17.632812 L 17.210938 -17.625 L 16.839844 -16.394531 L 16.882812 -16.230469 L 16.457031 -15.445312 C 16.726562 -14.558594 16.246094 -12.875 15.445312 -12.363281 L 15.34375 -11.589844 L 14.78125 -11.449219 C 14.113281 -12.042969 14.007812 -12.894531 13.820312 -13.742188 C 13.628906 -14.753906 13.273438 -15.761719 12.917969 -16.769531 C 12.566406 -17.699219 12.175781 -18.582031 11.703125 -19.464844 C 11.40625 -19.902344 11.148438 -20.34375 11.011719 -20.871094 C 10.960938 -21.234375 10.992188 -21.640625 10.738281 -21.921875 C 10.824219 -23.226562 10.132812 -24.589844 9.492188 -25.671875 L 9.8125 -25.84375 L 9.023438 -26.429688 C 9.125 -27.167969 9.03125 -27.570312 8.808594 -28.296875 C 7.648438 -28.957031 6.71875 -28.6875 5.421875 -28.570312 C 5.332031 -28.890625 5 -29.046875 4.675781 -28.953125 C 4.234375 -28.777344 3.871094 -28.726562 3.292969 -28.914062 C 2.898438 -28.578125 2.242188 -28.640625 1.671875 -28.707031 C 1.386719 -28.738281 1.0625 -28.609375 0.867188 -28.398438 L 0.710938 -28.191406 C 0.433594 -27.898438 0.40625 -27.449219 0.617188 -27.089844 C 1.128906 -26.332031 1.355469 -25.441406 1.707031 -24.597656 C 2.183594 -23.511719 2.582031 -22.421875 2.65625 -21.203125 C 3.070312 -21.011719 3.125 -20.484375 3.257812 -20.121094 C 3.433594 -19.597656 3.734375 -19.15625 3.910156 -18.632812 C 4.347656 -17.546875 4.421875 -16.367188 5.222656 -15.453125 L 5.148438 -15.167969 C 5.957031 -13.886719 6.289062 -12.226562 6.980469 -10.824219 C 7.714844 -9.335938 8.085938 -7.679688 8.941406 -6.238281 L 8.628906 -5.863281 C 9.082031 -4.207031 9.460938 -2.304688 10.835938 -1.121094 C 12.171875 0.0234375 13.828125 -0.433594 15.417969 -0.355469 C 15.890625 -0.976562 16.445312 -1.484375 16.832031 -2.1875 C 17.21875 -2.96875 17.480469 -3.792969 17.78125 -4.613281 C 17.398438 -5.253906 18.128906 -6.78125 18.3125 -7.480469 L 18.589844 -7.648438 C 18.683594 -8.671875 18.777344 -9.648438 19.160156 -10.636719 C 19.460938 -11.417969 19.847656 -12.164062 20.027344 -13.023438 C 20.425781 -14.703125 20.828125 -16.425781 21.804688 -17.878906 C 21.710938 -18.324219 22.066406 -18.660156 22.179688 -19.027344 C 22.289062 -19.4375 22.234375 -19.882812 22.304688 -20.335938 C 22.480469 -21.273438 23.023438 -22.269531 23.613281 -23.015625 L 23.195312 -23.414062 C 23.644531 -24.769531 24.546875 -25.933594 24.628906 -27.359375 L 24.867188 -27.53125 Z M 24.683594 -28.339844 "/></g></g></g><g fill="#57744b" fill-opacity="1"><g transform="translate(209.652334, 346.66529)"><g><path d="M 15.304688 -31.285156 C 15.160156 -31.960938 14.414062 -32.339844 13.761719 -32.074219 C 13.113281 -31.808594 12.457031 -31.375 11.761719 -31.308594 C 10.445312 -31.234375 9.398438 -31.464844 8.089844 -30.972656 C 7.507812 -30.765625 6.964844 -30.398438 6.367188 -30.269531 C 5.730469 -30.128906 5.082031 -30.242188 4.476562 -30.152344 C 3.195312 -29.917969 2.257812 -29.253906 0.945312 -29.347656 L 0.820312 -29.152344 C 0.128906 -29.085938 -0.589844 -28.933594 -1.296875 -28.738281 C -2.171875 -28.546875 -2.789062 -27.75 -2.757812 -26.839844 C -2.75 -25.84375 -2.480469 -24.777344 -2.140625 -23.976562 C -2.828125 -23.117188 -2.027344 -21.710938 -1.636719 -20.878906 C -1.382812 -20.269531 -1.09375 -19.707031 -1.027344 -19.011719 C -0.976562 -18.398438 -1.175781 -17.773438 -1.039062 -17.136719 C -0.835938 -16.390625 -0.425781 -15.644531 -0.210938 -14.859375 C 0.0234375 -13.953125 0.222656 -13.039062 0.332031 -12.144531 C 0.519531 -10.3125 1.183594 -8.582031 1.402344 -6.796875 L 1.339844 -6.703125 C 1.585938 -5.960938 1.636719 -5.140625 1.839844 -4.394531 C 2.066406 -3.734375 2.402344 -3.140625 2.746094 -2.507812 C 2.535156 -1.753906 3.105469 -1.046875 3.855469 -1.039062 C 4.152344 -1.023438 4.429688 -1.082031 4.785156 -1.160156 C 5.851562 -1.429688 6.890625 -1.445312 8.007812 -1.480469 L 8.589844 -2.0625 C 9.269531 -2.003906 9.425781 -2.035156 10.09375 -2.222656 C 10.691406 -2.351562 11.210938 -2.253906 11.789062 -2.464844 C 13.089844 -2.996094 14.25 -3.035156 15.605469 -3.121094 L 15.636719 -3.542969 C 17.023438 -3.679688 18.113281 -4.039062 19.457031 -4.164062 L 19.558594 -4.476562 C 19.988281 -4.402344 20.335938 -4.351562 20.710938 -4.347656 C 21.09375 -4.308594 21.417969 -4.542969 21.554688 -4.863281 C 22.058594 -5.804688 22.0625 -6.765625 21.589844 -7.785156 L 21.230469 -8.292969 C 20.910156 -8.429688 20.535156 -8.433594 20.242188 -8.246094 C 19.089844 -7.414062 17.910156 -7.28125 16.523438 -7.734375 C 15.640625 -7 15.152344 -6.9375 14.0625 -6.785156 C 13.050781 -6.648438 12.105469 -6.402344 11.097656 -6.4375 C 10.691406 -6.015625 10.300781 -5.890625 9.722656 -5.679688 C 9.503906 -6.300781 9.332031 -6.71875 8.882812 -7.25 C 9.363281 -8.308594 8.953125 -9.054688 8.800781 -10.144531 L 8.109375 -10.453125 L 8.207031 -11.722656 C 7.667969 -12.105469 7.824219 -12.929688 7.78125 -13.503906 C 8.554688 -14.546875 9.300781 -14.957031 10.566406 -15.0625 C 11.546875 -15.152344 12.371094 -15.203125 13.128906 -15.742188 C 13.410156 -15.96875 13.53125 -16.371094 13.457031 -16.730469 C 13.328125 -17.117188 13.273438 -17.5625 13.148438 -17.953125 C 13.050781 -18.222656 12.878906 -18.4375 12.753906 -18.617188 C 12.414062 -19.042969 11.855469 -19.128906 11.460938 -18.835938 C 10.945312 -18.519531 10.367188 -18.308594 9.917969 -18.835938 C 9.082031 -18.65625 8.582031 -18.464844 7.847656 -18.015625 L 7.652344 -18.347656 L 6.769531 -18.574219 C 6.296875 -19.804688 5.871094 -21.003906 5.753906 -22.308594 C 5.6875 -23.585938 5.214844 -24.609375 4.988281 -25.847656 C 5.691406 -26.457031 6.601562 -26.488281 7.46875 -26.71875 C 8.570312 -26.996094 9.660156 -27.359375 10.757812 -27.679688 C 11.8125 -27.988281 12.777344 -28.15625 13.875 -28.269531 C 14.203125 -28.296875 14.480469 -28.359375 14.761719 -28.417969 C 15.617188 -28.6875 16.027344 -29.691406 15.605469 -30.472656 L 15.375 -30.964844 Z M 15.304688 -31.285156 "/></g></g></g><g fill="#57744b" fill-opacity="1"><g transform="translate(236.663738, 340.582753)"><g><path d="M -0.4375 -31.320312 C -0.957031 -31.191406 -1.523438 -31.175781 -1.949219 -30.824219 C -2.28125 -30.554688 -2.378906 -30.160156 -2.710938 -29.890625 C -3.136719 -29.539062 -3.742188 -29.507812 -4.152344 -29.117188 C -4.441406 -28.863281 -4.6875 -28.5 -4.894531 -28.148438 C -5.101562 -27.796875 -5.203125 -27.402344 -5.410156 -27.054688 C -5.621094 -26.613281 -5.988281 -26.328125 -6.164062 -25.902344 C -6.304688 -25.492188 -6.296875 -25.054688 -6.453125 -24.683594 C -6.628906 -24.257812 -7 -23.882812 -7.230469 -23.476562 C -6.730469 -21 -6.601562 -18.671875 -4.734375 -16.714844 C -3.882812 -15.835938 -1.832031 -13.867188 -0.464844 -14.609375 C 1.46875 -13.871094 3.585938 -14.398438 5.578125 -14.164062 C 7.855469 -13.878906 10.164062 -13.734375 12.390625 -13.246094 C 12.9375 -12.460938 13.269531 -11.761719 13.609375 -10.84375 C 13.171875 -10.621094 13.140625 -10.167969 12.949219 -9.777344 C 12.660156 -9.304688 12.277344 -9.058594 11.820312 -8.78125 C 10.734375 -8.109375 9.351562 -7.933594 8.257812 -7.171875 L 7.492188 -7.425781 L 7.121094 -7.050781 C 6.164062 -7.226562 5.230469 -6.929688 4.285156 -6.976562 C 3.394531 -7.003906 2.664062 -7.492188 1.953125 -8.035156 C 1.199219 -7.722656 0.304688 -7.441406 -0.230469 -6.820312 C -0.847656 -6.082031 -0.519531 -5.289062 -0.320312 -4.492188 C 0.980469 -4.328125 1.972656 -3.636719 3.191406 -3.351562 C 3.820312 -3.214844 4.453125 -3.390625 5.105469 -3.308594 C 5.792969 -3.242188 6.410156 -2.921875 7.082031 -2.894531 C 8.496094 -2.777344 9.738281 -3.820312 11.007812 -4.257812 C 12.332031 -4.675781 13.675781 -5.585938 15.027344 -5.617188 C 16.277344 -7.0625 17.714844 -8.273438 18.894531 -9.777344 C 19.355469 -10.367188 19.605469 -11.042969 19.605469 -11.789062 C 19.589844 -12.355469 19.367188 -13.101562 19.992188 -13.40625 C 19.972656 -14.410156 19.859375 -15.421875 19.6875 -16.363281 C 19.535156 -17.269531 19.035156 -17.941406 18.59375 -18.683594 C 17.921875 -19.773438 17.066406 -21.089844 15.570312 -21.085938 L 14.875 -21.8125 L 14.335938 -21.722656 L 13.761719 -22.363281 C 12.71875 -22.328125 12.296875 -22.285156 11.4375 -22.765625 L 9.679688 -22.433594 L 8.925781 -23.089844 C 7.636719 -22.6875 6.582031 -22.996094 5.257812 -23.109375 L 4.832031 -22.757812 C 3.34375 -22.84375 1.773438 -23.117188 0.535156 -23.878906 C 0.476562 -24.339844 -0.0742188 -24.816406 -0.34375 -25.144531 L 0.292969 -27.21875 C 1.476562 -27.445312 2.210938 -28.542969 3.28125 -28.941406 C 4.515625 -29.363281 5.875 -29.269531 7.152344 -29.269531 L 7.570312 -29.75 C 8.800781 -29.117188 9.84375 -28.625 10.992188 -29.675781 C 11.246094 -29.910156 11.449219 -30.171875 11.613281 -30.414062 C 12.238281 -31.554688 11.519531 -32.976562 10.261719 -33.246094 C 9.632812 -33.382812 9.003906 -33.519531 8.40625 -33.578125 C 7.414062 -33.738281 6.410156 -33.5 5.414062 -33.351562 C 4.351562 -33.261719 3.253906 -33.246094 2.246094 -32.917969 C 1.253906 -32.550781 0.4375 -31.859375 -0.4375 -31.320312 Z M -0.4375 -31.320312 "/></g></g></g><g fill="#57744b" fill-opacity="1"><g transform="translate(263.84484, 328.959874)"><g><path d="M -7.824219 -24.324219 C -7.3125 -24.953125 -6.882812 -25.332031 -6.199219 -25.78125 C -5.921875 -25.578125 -5.617188 -25.335938 -5.300781 -25.15625 C -4.855469 -24.035156 -4.105469 -22.96875 -3.34375 -22.109375 C -2.707031 -21.359375 -1.59375 -20.777344 -1.644531 -19.671875 C -0.6875 -18.886719 -0.527344 -17.824219 -0.0117188 -16.75 C 0.453125 -15.742188 1.375 -14.789062 2 -13.835938 C 3.027344 -13.832031 3.042969 -12.621094 3.402344 -11.933594 C 3.847656 -10.957031 4.824219 -9.992188 5.539062 -9.199219 L 5.433594 -8.398438 C 5.972656 -7.875 6.261719 -7.140625 6.824219 -6.585938 C 7.28125 -6.109375 7.878906 -5.867188 8.542969 -5.671875 C 8.601562 -5.660156 8.632812 -5.683594 8.667969 -5.703125 C 10.027344 -6.597656 11.207031 -7.765625 12.734375 -8.1875 C 12.824219 -8.195312 12.90625 -8.296875 12.859375 -8.367188 C 12.828125 -8.488281 12.871094 -8.570312 12.941406 -8.613281 L 13.03125 -8.625 C 13.449219 -8.800781 13.746094 -9.242188 13.691406 -9.691406 C 13.605469 -10.269531 13.425781 -10.835938 13.070312 -11.378906 C 12.621094 -12.058594 12.003906 -12.625 11.5 -13.316406 C 10.492188 -14.699219 9.625 -16.464844 8.886719 -18.027344 L 8.5625 -18.007812 C 8.238281 -18.574219 7.933594 -19.105469 7.679688 -19.71875 L 7.261719 -19.832031 C 7.027344 -20.261719 6.714844 -20.738281 6.695312 -21.210938 C 5.617188 -21.964844 5.332031 -23.285156 4.660156 -24.304688 C 4.257812 -24.917969 3.726562 -25.351562 3.382812 -25.949219 C 3.035156 -26.550781 2.847656 -27.207031 2.488281 -27.75 L 2.015625 -27.730469 C 1.726562 -28.613281 1.582031 -28.90625 0.886719 -29.519531 L 1.015625 -30.433594 C 1.933594 -30.890625 2.398438 -31.292969 3.078125 -32.035156 L 3.734375 -32.078125 C 4.382812 -32.941406 4.941406 -33.648438 6.082031 -33.621094 C 6.714844 -34.136719 6.875 -34.484375 7.058594 -35.09375 C 7.195312 -35.476562 7.109375 -35.90625 6.886719 -36.246094 C 6.449219 -36.835938 6.011719 -37.128906 5.359375 -37.382812 C 4.894531 -37.566406 4.375 -37.46875 4.046875 -37.152344 C 3.34375 -36.59375 2.695312 -36.023438 1.9375 -35.621094 C 1.144531 -35.195312 0.320312 -34.894531 -0.382812 -34.335938 C -1.253906 -33.664062 -1.984375 -32.84375 -2.914062 -32.183594 C -3.671875 -31.636719 -4.578125 -31.234375 -5.335938 -30.6875 C -6.164062 -30.09375 -6.902344 -29.511719 -7.796875 -29.019531 C -8.679688 -28.582031 -9.402344 -28.203125 -10.128906 -27.53125 C -10.832031 -26.824219 -11.488281 -26.636719 -12.394531 -26.234375 C -13.242188 -25.824219 -13.902344 -25.195312 -14.492188 -24.464844 C -14.699219 -24.183594 -14.609375 -23.753906 -14.296875 -23.570312 C -14.082031 -23.46875 -13.96875 -23.300781 -13.980469 -23.097656 L -13.960938 -23.0625 C -13.972656 -22.859375 -13.859375 -22.6875 -13.679688 -22.5625 C -12.871094 -22.074219 -12.117188 -21.890625 -11.210938 -22.4375 C -10.097656 -23.117188 -9.15625 -23.980469 -7.824219 -24.324219 Z M -7.824219 -24.324219 "/></g></g></g><g fill="#57744b" fill-opacity="1"><g transform="translate(130.854613, 71.433408)"><g><path d="M -1.71875 -28.566406 C -0.988281 -29.105469 -0.414062 -29.398438 0.445312 -29.695312 C 0.695312 -29.394531 0.957031 -29.050781 1.246094 -28.765625 C 1.417969 -27.425781 1.933594 -26.0625 2.523438 -24.914062 C 3.007812 -23.925781 4.054688 -22.984375 3.691406 -21.796875 C 4.507812 -20.679688 4.390625 -19.484375 4.644531 -18.175781 C 4.875 -16.953125 5.605469 -15.660156 6.019531 -14.453125 C 7.132812 -14.164062 6.8125 -12.847656 7.007812 -12 C 7.222656 -10.820312 8.011719 -9.5 8.570312 -8.4375 L 8.230469 -7.601562 C 8.671875 -6.882812 8.78125 -6.003906 9.234375 -5.246094 C 9.601562 -4.601562 10.179688 -4.171875 10.847656 -3.777344 C 10.90625 -3.746094 10.949219 -3.761719 10.992188 -3.777344 C 12.714844 -4.371094 14.320312 -5.308594 16.09375 -5.335938 C 16.195312 -5.324219 16.308594 -5.410156 16.28125 -5.496094 C 16.277344 -5.640625 16.347656 -5.714844 16.4375 -5.746094 L 16.535156 -5.730469 C 17.039062 -5.808594 17.484375 -6.199219 17.550781 -6.707031 C 17.617188 -7.355469 17.582031 -8.019531 17.34375 -8.707031 C 17.050781 -9.570312 16.539062 -10.359375 16.183594 -11.246094 C 15.476562 -13.027344 15.023438 -15.1875 14.660156 -17.085938 L 14.296875 -17.15625 C 14.105469 -17.859375 13.925781 -18.519531 13.816406 -19.253906 L 13.398438 -19.496094 C 13.261719 -20.027344 13.054688 -20.632812 13.164062 -21.152344 C 12.203125 -22.265625 12.261719 -23.78125 11.816406 -25.074219 C 11.550781 -25.847656 11.097656 -26.464844 10.890625 -27.210938 C 10.679688 -27.960938 10.660156 -28.722656 10.421875 -29.414062 L 9.902344 -29.523438 C 9.835938 -30.5625 9.761719 -30.921875 9.175781 -31.78125 L 9.570312 -32.734375 C 10.691406 -32.976562 11.308594 -33.285156 12.253906 -33.898438 L 12.976562 -33.761719 C 13.921875 -34.519531 14.722656 -35.132812 15.949219 -34.78125 C 16.785156 -35.164062 17.054688 -35.5 17.421875 -36.109375 C 17.679688 -36.484375 17.703125 -36.976562 17.554688 -37.40625 C 17.246094 -38.167969 16.851562 -38.609375 16.214844 -39.066406 C 15.765625 -39.394531 15.171875 -39.429688 14.726562 -39.183594 C 13.808594 -38.769531 12.949219 -38.328125 12.015625 -38.105469 C 11.035156 -37.863281 10.058594 -37.769531 9.136719 -37.359375 C 8.003906 -36.871094 6.988281 -36.183594 5.796875 -35.726562 C 4.820312 -35.34375 3.726562 -35.160156 2.75 -34.777344 C 1.6875 -34.363281 0.722656 -33.9375 -0.382812 -33.652344 C -1.460938 -33.425781 -2.355469 -33.214844 -3.328125 -32.6875 C -4.289062 -32.117188 -5.054688 -32.09375 -6.148438 -31.910156 C -7.183594 -31.699219 -8.070312 -31.203125 -8.917969 -30.574219 C -9.214844 -30.328125 -9.242188 -29.835938 -8.949219 -29.550781 C -8.746094 -29.378906 -8.671875 -29.164062 -8.742188 -28.949219 L -8.726562 -28.90625 C -8.796875 -28.6875 -8.722656 -28.472656 -8.5625 -28.285156 C -7.820312 -27.527344 -7.054688 -27.117188 -5.917969 -27.460938 C -4.523438 -27.890625 -3.261719 -28.566406 -1.71875 -28.566406 Z M -1.71875 -28.566406 "/></g></g></g><g fill="#57744b" fill-opacity="1"><g transform="translate(157.606037, 62.024778)"><g><path d="M 26.621094 -3.105469 C 26.710938 -3.113281 26.75 -3.164062 26.839844 -3.175781 L 27.609375 -3.257812 C 27.835938 -3.285156 28.007812 -3.394531 28.128906 -3.546875 L 28.851562 -4.496094 C 28.613281 -4.5625 28.367188 -4.71875 28.296875 -4.9375 C 28.058594 -5.460938 27.863281 -5.992188 27.535156 -6.460938 C 27.101562 -7.054688 26.550781 -7.5 26.167969 -8.050781 C 25.457031 -9.121094 24.625 -10.40625 24.617188 -11.734375 C 23.140625 -13.085938 22.160156 -14.902344 21.898438 -16.890625 C 22.921875 -17.601562 23.976562 -18.402344 24.542969 -19.519531 C 25.074219 -20.542969 25.109375 -21.875 25.402344 -22.960938 C 25.742188 -24.054688 25.628906 -25.507812 25.503906 -26.640625 C 25.414062 -27.867188 24.671875 -28.796875 23.886719 -29.671875 C 22.421875 -31.347656 21.273438 -33.007812 18.980469 -33.445312 C 17.671875 -33.667969 16.347656 -34.027344 15.035156 -33.882812 C 14.445312 -33.816406 13.871094 -33.617188 13.238281 -33.546875 C 12.597656 -33.523438 12.023438 -33.734375 11.410156 -33.898438 L 10.867188 -33.425781 C 10.152344 -33.667969 9.328125 -33.667969 8.757812 -33.011719 C 7.972656 -33.0625 7.164062 -33.339844 6.390625 -33.253906 C 5.667969 -33.175781 5.117188 -32.75 4.449219 -32.582031 C 3.738281 -32.367188 3.03125 -32.566406 2.292969 -32.578125 C 1.933594 -32.535156 1.613281 -32.5 1.304688 -32.421875 C 0.367188 -32.179688 -0.320312 -31.328125 -0.351562 -30.359375 C -0.398438 -29.53125 -0.308594 -28.714844 -0.0742188 -27.824219 L -0.113281 -27.773438 L 0.378906 -26.636719 C -0.0742188 -26.171875 0.285156 -25.386719 0.300781 -24.839844 C 0.386719 -24.066406 0.242188 -23.273438 0.375 -22.507812 C 0.519531 -21.605469 0.792969 -20.765625 0.796875 -19.894531 C 0.839844 -19.074219 0.832031 -18.339844 1.140625 -17.59375 L 0.847656 -16.921875 C 1.144531 -16.3125 1.449219 -15.609375 1.527344 -14.929688 C 1.644531 -14.257812 1.398438 -13.585938 1.335938 -12.894531 C 1.257812 -11.507812 1.941406 -10.300781 2.179688 -8.949219 C 2.300781 -8.277344 2.09375 -7.65625 2.164062 -7.023438 C 2.1875 -6.382812 2.386719 -5.808594 2.453125 -5.222656 C 2.601562 -3.863281 3.128906 -2.40625 2.867188 -1.046875 C 2.875 -0.957031 2.933594 -0.828125 2.984375 -0.785156 C 3.894531 -0.425781 5.179688 -0.0195312 5.96875 -0.746094 C 6.015625 -0.75 6.054688 -0.800781 6.148438 -0.8125 C 7.121094 -0.691406 8.179688 -0.667969 9.160156 -0.914062 C 9.921875 -1.089844 10.617188 -1.441406 11.363281 -1.75 C 11.5 -1.765625 11.519531 -1.996094 11.371094 -2.074219 C 11.316406 -2.160156 11.261719 -2.246094 11.300781 -2.292969 C 11.417969 -2.902344 11.539062 -3.46875 11.378906 -4.089844 C 11.21875 -4.714844 10.933594 -5.234375 10.949219 -5.925781 C 10.90625 -7.15625 10.605469 -8.226562 10.472656 -9.449219 C 10.394531 -10.585938 10.050781 -12.015625 10.578125 -13.082031 C 10.949219 -13.855469 11.710938 -14.03125 12.464844 -14.25 C 13.421875 -13.484375 14 -12.402344 14.832031 -11.484375 C 15.667969 -10.566406 15.847656 -10.175781 16.039062 -8.867188 C 17.339844 -7.863281 17.976562 -7.0625 18.472656 -5.464844 L 18.933594 -5.46875 L 18.878906 -4.683594 L 19.507812 -4.386719 C 19.570312 -3.84375 19.589844 -3.25 19.957031 -2.832031 C 20.171875 -2.535156 20.546875 -2.4375 20.839844 -2.285156 C 21.085938 -2.128906 21.355469 -2.207031 21.515625 -2.40625 C 21.550781 -2.503906 21.675781 -2.609375 21.8125 -2.621094 C 22.664062 -2.808594 23.03125 -2.800781 23.976562 -2.539062 L 24.535156 -2.875 C 25.566406 -2.667969 25.75 -2.6875 26.621094 -3.105469 Z M 11.019531 -29.542969 C 11.636719 -29.335938 12.890625 -28.785156 13.414062 -29.441406 C 13.84375 -28.847656 14.558594 -27.367188 15.386719 -27.320312 C 15.222656 -26.335938 16.144531 -24.605469 16.601562 -23.785156 C 16.230469 -22.136719 15.519531 -20.683594 15.011719 -19.070312 C 14.316406 -18.71875 13.578125 -18.316406 12.757812 -18.273438 C 11.898438 -18.179688 10.996094 -18.445312 10.21875 -18.039062 L 9.15625 -20.171875 C 9.496094 -21.675781 9.253906 -23.070312 9.128906 -24.613281 C 9.0625 -25.203125 9.222656 -25.863281 9.066406 -26.441406 C 8.871094 -26.96875 8.367188 -27.375 8.304688 -27.960938 C 8.816406 -28.292969 9.003906 -28.679688 9.3125 -29.21875 L 10.441406 -28.929688 L 10.402344 -29.292969 Z M 11.019531 -29.542969 "/></g></g></g><g fill="#57744b" fill-opacity="1"><g transform="translate(186.642981, 58.572168)"><g><path d="M 26.699219 -10.691406 C 26.6875 -9.085938 26.449219 -7.507812 25.460938 -6.207031 C 25.238281 -5.867188 24.984375 -5.667969 24.847656 -5.316406 C 24.714844 -4.964844 24.800781 -4.542969 24.664062 -4.191406 C 24.402344 -3.535156 23.738281 -3.386719 23.160156 -3.136719 L 23.261719 -2.480469 C 21.5 -1.960938 20.03125 -1.589844 18.152344 -1.636719 L 18.101562 -1.964844 C 16.710938 -2.226562 15.683594 -3.222656 14.371094 -3.753906 C 13.921875 -4.957031 13.410156 -6.027344 13.289062 -7.28125 C 13.210938 -8.53125 13.089844 -9.785156 13.101562 -11.023438 C 13.070312 -12.269531 13.984375 -13.351562 13.90625 -14.597656 C 13.828125 -15.070312 13.558594 -15.515625 13.621094 -16.011719 C 13.648438 -16.605469 14.078125 -17.105469 14.328125 -17.671875 C 14.085938 -18.296875 14.25 -19.285156 14.242188 -19.976562 C 13.664062 -20.507812 14.261719 -21.257812 14.472656 -21.832031 C 14.773438 -22.804688 14.851562 -23.804688 14.464844 -24.769531 C 14.792969 -25.601562 15.351562 -26.40625 15.421875 -27.363281 C 15.5 -27.996094 15.398438 -28.652344 15.429688 -29.289062 C 15.5 -29.878906 15.109375 -30.429688 14.53125 -30.59375 C 14.039062 -30.699219 13.503906 -30.8125 12.949219 -30.789062 C 11.941406 -30.820312 11.167969 -30.867188 10.324219 -31.476562 C 9.539062 -31.066406 8.734375 -31.625 7.933594 -31.445312 C 7.171875 -31.21875 6.769531 -30.578125 6.410156 -29.886719 C 7.007812 -28.023438 6.726562 -26.453125 6.222656 -24.585938 L 5.824219 -24.359375 C 5.8125 -23.488281 5.429688 -22.617188 5.511719 -21.777344 C 5.511719 -21.410156 5.703125 -21.113281 5.707031 -20.746094 C 5.707031 -20.378906 5.480469 -20.039062 5.429688 -19.628906 C 5.4375 -19.308594 5.535156 -18.976562 5.492188 -18.613281 C 5.425781 -18.070312 5.097656 -17.652344 5.035156 -17.152344 C 4.925781 -16.25 5.085938 -15.3125 4.929688 -14.410156 C 4.765625 -13.421875 4.894531 -12.625 4.863281 -11.617188 C 4.851562 -10.75 4.570312 -9.957031 4.464844 -9.097656 C 4.28125 -7.234375 5.230469 -5.605469 5.707031 -3.847656 C 6.382812 -3.765625 6.703125 -2.992188 7.007812 -2.496094 C 7.472656 -1.792969 8.046875 -1.21875 8.367188 -0.445312 C 8.980469 -0.234375 9.425781 0.28125 9.980469 0.625 C 10.535156 0.96875 11.195312 1.1875 11.746094 1.574219 C 12.851562 2.304688 14.078125 2.410156 15.355469 2.84375 L 15.988281 2.550781 C 16.671875 2.957031 17.4375 2.730469 18.175781 2.683594 C 18.96875 2.59375 19.726562 2.78125 20.527344 2.96875 C 21.070312 2.667969 21.578125 2.273438 22.238281 2.125 C 22.808594 1.964844 23.445312 2.039062 24.015625 1.882812 C 25.160156 1.515625 25.851562 0.359375 27 -0.00390625 C 27.78125 -1.515625 28.816406 -2.859375 29.730469 -4.308594 C 30.636719 -5.710938 30.632812 -7.179688 30.910156 -8.707031 C 31.53125 -11.894531 30.75 -15.660156 32.433594 -18.53125 C 32.035156 -20.140625 32.828125 -21.746094 32.929688 -23.339844 L 32.472656 -23.714844 L 32.839844 -24.863281 L 33.382812 -25.164062 C 33.25 -25.960938 33.117188 -26.757812 33.03125 -27.550781 C 32.960938 -28.109375 32.507812 -28.53125 31.964844 -28.597656 C 31.105469 -28.703125 30.179688 -29 29.394531 -28.59375 C 27.859375 -27.679688 28.785156 -25.867188 28.484375 -24.523438 L 27.996094 -24.308594 C 28.023438 -23.386719 27.828125 -22.539062 28.277344 -21.703125 L 27.847656 -21.574219 C 27.640625 -21 27.398438 -20.527344 27.5 -19.871094 C 27.550781 -19.542969 27.746094 -19.242188 27.746094 -18.875 C 27.730469 -18.003906 27.257812 -17.144531 27.070312 -16.339844 C 26.8125 -15.363281 26.632812 -14.28125 26.835938 -13.292969 C 27.027344 -12.261719 26.960938 -11.71875 26.699219 -10.691406 Z M 26.699219 -10.691406 "/></g></g></g><g fill="#57744b" fill-opacity="1"><g transform="translate(217.447649, 62.490077)"><g><path d="M 32.988281 -20.816406 C 33.246094 -21.546875 32.757812 -22.347656 31.980469 -22.476562 C 31.207031 -22.605469 30.328125 -22.578125 29.625 -22.921875 C 28.328125 -23.625 27.464844 -24.460938 25.925781 -24.765625 C 25.25 -24.90625 24.515625 -24.878906 23.871094 -25.105469 C 23.183594 -25.347656 22.628906 -25.835938 22 -26.105469 C 20.640625 -26.636719 19.355469 -26.558594 18.164062 -27.414062 L 17.929688 -27.304688 C 17.230469 -27.648438 16.457031 -27.921875 15.667969 -28.152344 C 14.722656 -28.488281 13.664062 -28.089844 13.15625 -27.203125 C 12.578125 -26.25 12.207031 -25.074219 12.0625 -24.109375 C 10.902344 -23.699219 10.839844 -21.886719 10.71875 -20.863281 C 10.605469 -20.128906 10.546875 -19.425781 10.203125 -18.726562 C 9.890625 -18.109375 9.332031 -17.632812 9.089844 -16.945312 C 8.84375 -16.113281 8.796875 -15.160156 8.535156 -14.289062 C 8.230469 -13.285156 7.878906 -12.296875 7.460938 -11.378906 C 6.5625 -9.523438 6.175781 -7.484375 5.335938 -5.652344 L 5.21875 -5.597656 C 5.015625 -4.75 4.585938 -3.9375 4.339844 -3.105469 C 4.164062 -2.34375 4.136719 -1.582031 4.09375 -0.773438 C 3.449219 -0.183594 3.574219 0.828125 4.285156 1.273438 C 4.558594 1.46875 4.859375 1.574219 5.246094 1.710938 C 6.417969 2.078125 7.417969 2.671875 8.503906 3.296875 L 9.398438 3.085938 C 10.011719 3.542969 10.183594 3.601562 10.929688 3.820312 C 11.574219 4.046875 12.011719 4.445312 12.6875 4.585938 C 14.238281 4.84375 15.367188 5.484375 16.707031 6.203125 L 16.988281 5.820312 C 18.390625 6.507812 19.636719 6.804688 20.996094 7.476562 L 21.273438 7.238281 C 21.640625 7.5625 21.941406 7.8125 22.296875 8.035156 C 22.636719 8.300781 23.085938 8.265625 23.40625 8.042969 C 24.441406 7.441406 25.003906 6.527344 25.160156 5.277344 L 25.113281 4.585938 C 24.890625 4.261719 24.53125 4.039062 24.144531 4.046875 C 22.554688 4.164062 21.355469 3.59375 20.296875 2.347656 C 19.023438 2.527344 18.523438 2.300781 17.394531 1.804688 C 16.351562 1.339844 15.304688 1.015625 14.363281 0.394531 C 13.726562 0.554688 13.28125 0.445312 12.609375 0.304688 C 12.765625 -0.414062 12.847656 -0.917969 12.730469 -1.683594 C 13.8125 -2.414062 13.855469 -3.363281 14.355469 -4.492188 L 13.875 -5.195312 L 14.71875 -6.347656 C 14.429688 -7.027344 15.0625 -7.722656 15.359375 -8.292969 C 16.710938 -8.832031 17.660156 -8.785156 18.933594 -8.144531 C 19.917969 -7.648438 20.730469 -7.214844 21.769531 -7.285156 C 22.175781 -7.332031 22.527344 -7.644531 22.664062 -8.03125 C 22.773438 -8.476562 22.984375 -8.933594 23.09375 -9.378906 C 23.15625 -9.695312 23.117188 -9.996094 23.109375 -10.242188 C 23.03125 -10.847656 22.550781 -11.261719 22 -11.214844 C 21.324219 -11.210938 20.648438 -11.355469 20.535156 -12.121094 C 19.632812 -12.441406 19.042969 -12.550781 18.078125 -12.554688 L 18.085938 -12.988281 L 17.378906 -13.722656 C 17.648438 -15.171875 17.949219 -16.566406 18.605469 -17.878906 C 19.292969 -19.136719 19.445312 -20.386719 19.960938 -21.703125 C 20.988281 -21.871094 21.871094 -21.363281 22.832031 -21.074219 C 24.050781 -20.691406 25.296875 -20.394531 26.53125 -20.054688 C 27.722656 -19.730469 28.738281 -19.320312 29.851562 -18.78125 C 30.179688 -18.617188 30.480469 -18.511719 30.78125 -18.40625 C 31.757812 -18.15625 32.738281 -18.875 32.800781 -19.867188 L 32.867188 -20.472656 Z M 32.988281 -20.816406 "/></g></g></g></svg>